<?xml version="1.0" standalone="yes"?>
<svg xmlns="http://www.w3.org/2000/svg" width="500" height="500">
<path style="fill:#010101; stroke:none;" d="M0 0L0 500L500 500L500 229C499.033 230.808 498.302 232.418 497 234C496.611 240.882 489.527 249.142 483 251C479.353 257.492 471.743 259.188 465 260.873C443.974 266.129 425.071 258.892 407 249C406.599 254.092 408.562 263.006 406 267C407.064 272.507 408.372 280.193 405 285C405.463 292.664 398.819 301.88 393.413 306.957C381.45 318.19 359.986 322.722 344 319.276C337.984 317.98 332.359 316.592 328 312L326 313C323.479 307.604 318.225 305.105 317 299C313.839 298.263 313.761 295.927 312.241 293.259C308.302 286.349 305.975 278.988 305 271C298.848 267.418 298.501 255.511 296.873 249C292.031 229.632 289.045 208.674 282 190C280.995 192.15 280.47 194.118 279 196C279.391 202.193 275.523 208.557 273.379 214.285C267.344 230.413 259.62 245.577 252.176 261.001C249.465 266.617 245.472 271.522 242.711 277.13C241.761 279.059 240.036 281.66 240.733 283.905C242.177 288.553 249.764 290.591 253 294C259.702 295.16 269.296 302.023 274 307L277 306C281.141 313.175 291.93 312.256 296 320C301.57 320.946 306.858 324.782 309 330C315.669 330.871 314.304 345.808 310.972 349.778C307.239 354.227 302.344 355.025 297 356.361C288.836 358.402 281.334 360.439 273 360.111C268.778 359.945 264.342 363.076 261 360C241.719 363.978 222.221 364.229 203 368.621C195.298 370.381 185.952 366.611 185 378L182 379C181.489 384.377 178.578 388.268 176.295 393.001C174.827 396.042 174.059 399.368 172 402C171.574 406.479 170.075 410.696 167 414C167.099 418.52 165.249 421.916 162 425C162 426.797 162.014 426.521 163 428C160.376 430.149 159.309 433.605 156.556 435.867C150.82 440.58 143.758 439.289 137 439C138.081 447.031 142.932 455.961 139.902 463.995C137.656 469.951 126.909 474.383 121.653 469.41C117.953 465.91 117.559 457.743 116.373 453C114.744 446.483 115.559 440.376 114.33 434C112.913 426.647 110.941 419.268 109.127 412C107.616 405.949 105.753 401.025 108 395C103.564 395.193 99.3801 396.41 95 397C93.9408 401.546 87.9649 401.109 84.412 403.301C76.8525 407.964 68.1754 410.107 60.1944 413.782C55.8252 415.795 52.9693 418.002 48 419C47.4686 423.09 42.4161 422.443 39.3889 424.472C36.1079 426.672 32.5916 427.183 29.3056 429.111C24.9782 431.65 21.5049 434.475 16 434.5C12.5564 434.516 10.3788 431.83 7 432C5.45174 427.099 2.28389 422.451 3.26775 417.09C4.0999 412.557 8.84057 408.667 11.5934 405.127C17.9815 396.911 25.1049 389.271 32.6566 382.117C36.4385 378.533 39.8765 374.444 45 373C45.8989 370.042 48.6836 367.885 50.8349 365.622C56.3761 359.791 65.3967 350.635 73 348C74.4473 343.238 81.3556 338.309 86 337C87.3898 332.427 93.8015 327.996 98 326C97.0656 314.258 96.1401 302.75 95.8704 291C95.7361 285.152 97.0679 278.684 96.2809 272.961C95.6364 268.274 96.2223 263.602 95.5216 259C94.8335 254.481 92.1782 250.056 95 246C92.7858 235.272 89.7995 224.679 87.3488 214C86.3268 209.547 84.1105 204.968 87 201C85.8767 190.25 100.991 187.364 108 193C109.797 193 109.522 192.986 111 192C112.989 195.446 116.981 196.738 119.981 199.282C124.61 203.206 128.083 208.314 132.389 212.551C136.037 216.141 140.423 218.968 142 224C144.121 224.228 143.89 224.15 145 226C149.17 226.937 152.241 230.876 155 234L157 233L158 236C160.121 236.228 159.89 236.15 161 238C168.361 239.653 174.774 247.895 182 251C183.606 249.086 184.783 248.163 187 247C187.372 244.14 190.145 243.226 192 240.972C197.098 234.776 205.926 221.449 214 220C218.976 207.272 236.807 201.908 241 189L245 189C247.056 183.527 249.777 178.322 251.569 172.715C252.692 169.202 252.672 165.958 255 163C254.758 159.24 255.662 155.736 255 152C256.911 150.375 257.433 147.993 259 146C258.018 141.485 258.121 136.742 261 133C260.516 130.294 260.431 129.224 262 127C260.92 121.676 259.78 113.614 263 109C261.503 103.675 259.398 97.5562 259.343 92C259.222 79.7339 275.265 69.3239 286.319 76.6049C293.757 81.5038 292.761 89.5874 294.215 97C295.123 101.624 297.89 106.846 295 111C299.017 130.463 304.531 149.662 309.116 169C313.45 187.282 317.098 205.953 322.392 223.985C323.366 227.304 325.536 229.85 326.745 233.039C331.101 244.538 334.361 258.826 336 271C340.184 273.55 341.182 279.224 344.728 282.803C351.994 290.137 362.896 287.131 370 281C370.296 277.888 371.043 275.432 373 273C371.772 266.075 372.992 258.993 372.741 252C372.382 242.015 370.122 232.914 369.014 223.039C368.669 219.965 369.676 217.094 369.177 213.985C368.285 208.426 367.969 203.561 367.621 198C367.386 194.244 365.863 191.316 368 188C366.916 182.389 365.479 173.827 369 169C367.062 161.313 368.622 147.687 373.532 141.171C378.971 133.952 390.635 130.772 397.441 138.114C404.325 145.541 401.312 151.401 403.375 160.001C407.072 175.41 409.932 190.825 416.59 205.09C417.712 207.494 417.947 210.213 419.248 212.545C425.767 224.217 434.823 230.504 448 231.785C454.536 232.42 458.049 228.765 464 227C464.498 223.102 466.961 219.933 467.542 215.985C468.137 211.952 466.496 208.438 469 205C466.304 192.103 482.767 184.786 492.811 191.044C497.843 194.179 498.304 200.608 499 206C501.395 200.293 500 192.154 500 186L500 145L500 0L0 0z"/>
<path style="fill:#ffffff; stroke:none;" d="M361 101L363 100C367.12 104.811 378.755 104.449 381 98L385 98C386.582 93.5611 388.519 86.7492 387.069 82.0895C383.807 71.6064 373.672 70.9402 365 73.1266C362.305 73.8059 359.17 74.2638 357.144 76.3434C353.791 79.7855 353.706 85.6208 354.67 89.9954C355.65 94.4482 358.542 97.314 361 101M263 109C258.926 112.611 260.665 122.236 262 127C259.86 128.878 260.258 130.316 261 133C257.566 135.955 257.83 141.927 259 146C257.089 147.625 256.567 150.007 255 152C255.242 155.76 254.338 159.264 255 163C252.305 165.267 252.582 168.581 251.569 171.83C249.751 177.663 246.382 183.098 245 189L241 189C236.88 196.82 228.314 203.095 222.075 209.272C218.556 212.757 215.207 214.979 214 220C205.457 221.353 198.364 233.139 192.727 239.242C190.489 241.664 187.649 243.824 187 247C184.363 247.939 183.382 248.58 182 251C175.893 247.245 167.917 238.856 161 238C160.006 235.797 160.33 235.952 158 236C158 234.203 157.986 234.478 157 233L155 234C152.982 230.395 149.184 226.252 145 226C144.006 223.797 144.33 223.952 142 224C140.851 218.591 136.244 215.524 132.444 211.804C128.404 207.849 125.196 203.042 120.911 199.336C117.748 196.599 113.89 195.045 111 192L108 193C102.124 185.92 84.6263 190.619 87 201C83.6178 203.971 85.9334 209.136 86.8704 213C89.5402 224.011 91.9261 235.087 95 246C90.8811 249.656 95.7678 258.875 95.3889 264C95.1135 267.724 96.216 271.176 96.0818 274.83C95.4541 291.914 95.8004 308.967 98 326C93.4221 327.341 86.9213 332.213 86 337C80.9843 337.791 73.9818 342.898 73 348C65.3927 349.582 55.3184 359.887 50.1698 365.622C48.0207 368.016 45.6015 369.874 45 373C39.6771 373.839 36.422 377.89 32.6566 381.47C24.9183 388.828 17.4138 396.519 11.0394 405.127C8.51176 408.539 4.13272 411.889 3.26389 416.174C2.08546 421.985 4.75205 426.88 7 432C9.8821 432.349 12.091 434.415 15 434.667C21.0445 435.19 25.3304 431.764 30.1944 429.19C33.5521 427.413 36.9524 426.568 40.2593 424.546C43.3722 422.643 47.5235 422.946 48 419C53.3842 418.274 56.3921 415.911 61.1289 413.836C69.1853 410.305 77.5981 407.754 85.2855 403.34C88.9012 401.263 94.0406 401.501 95 397L108 395C104.814 401.162 107.794 407.653 109.373 414C111.141 421.104 113.659 428.729 114.447 436C115.165 442.631 114.961 448.339 116.627 455C117.676 459.198 118.002 466.127 121.008 469.411C125.773 474.616 137.541 470.687 139.938 464.981C143.376 456.794 138.688 447.178 137 439C143.871 439.542 151.611 440.85 157.366 435.867C159.91 433.663 160.945 430.527 163 428L162 425C165.874 422.764 167.977 418.307 167 414C170.711 411.361 171.913 406.392 172 402C174.165 400.158 174.66 397.324 175.884 394.729C178.373 389.453 181.88 385.013 182 379C183.797 379 183.521 378.986 185 378C186.88 367.148 196.144 370.537 204 368.626C222.828 364.046 242.361 365.24 261 360C263.616 363.507 269.117 360.295 273 360.394C281.976 360.622 290.259 358.315 299 356.13C303.793 354.931 308.504 353.989 311.602 349.736C314.701 345.48 315.483 330.802 309 330C307.426 324.299 301.798 320.469 296 320C292.999 312.085 282.496 311.79 277 306C275.203 306 275.479 306.014 274 307C271.013 301.825 258.691 294.147 253 294C250.518 289.7 241.565 288.21 240.875 283.074C240.652 281.416 242.018 279.428 242.704 278C245.239 272.718 248.988 268.169 251.708 263C259.809 247.607 267.436 231.561 273.338 215.134C275.491 209.142 280.403 202.506 279 196C281.003 194.266 280.923 192.645 281 190C284.612 196.257 285.63 204.026 287.373 211C290.618 223.98 293.628 237.017 296.873 250C298.332 255.834 298.756 268.812 305 271C305.627 278.681 307.715 286.687 311.665 293.285C313.326 296.059 313.76 298.31 317 299C317.709 305.351 322.641 307.988 326 313L328 312C331.955 318.853 343.896 320.008 351 320.389C369.167 321.363 390.398 315.568 399.986 299.134C402.786 294.336 406.219 290.833 405 285C409.319 281.191 407.286 271.974 406 267C408.766 264.485 406.911 261.365 406.553 258C406.237 255.026 406.874 251.978 407 249C422.316 261.362 446.04 265.86 465 261.127C471.471 259.511 480.58 258.157 483 251C490.157 249.867 497.022 241.15 497 234C500.517 231.041 499.993 225.303 500 221C500.016 210.832 501.546 193.558 489.985 189.188C479.923 185.384 465.716 193.458 469 205C465.853 207.764 467.951 212.155 467.331 215.985C466.689 219.952 464.186 222.989 464 227C459.845 227.756 457.003 230.612 453.05 231.623C450.367 232.309 446.713 231.503 443.996 231.123C429.615 229.115 421.988 217.445 416.987 205.09C415.954 202.538 414.021 200.529 413.013 197.961C408.368 186.122 406.512 172.375 403.631 160.001C401.616 151.343 404.885 144.532 397.401 137.319C390.637 130.8 378.875 133.462 373.532 140.29C368.49 146.735 366.251 161.437 369 169C364.616 172.845 366.69 182.936 368 188C365.298 190.456 366.942 193.669 367.296 197C367.769 201.451 367.126 205.541 368.12 210C369.083 214.323 368.248 217.866 368.589 222.09C368.967 226.776 370.758 231.379 371.572 236C372.434 240.897 372.359 246.977 372.541 252C372.793 258.959 371.393 266.172 373 273C370.501 275.073 370.063 277.823 370 281C361.945 285.497 353.457 290.487 345.394 282.801C341.848 279.421 340.47 272.307 336 271C335.003 258.795 331.19 243.519 326.745 232.09C324.968 227.52 322.596 223.883 321.373 219C312.379 183.089 305.038 146.636 295 111C298.699 107.717 295.221 101.22 294.443 97C293.066 89.5357 294.451 81.7967 287.072 76.6042C283.504 74.0938 279.05 74.4067 275 75.2145C264.667 77.2755 257.947 82.4151 259.315 94C259.902 98.9734 261.246 104.325 263 109z"/>
<path style="fill:#010101; stroke:none;" d="M113 233C115.707 243.459 115.503 253.351 115.684 264C115.797 270.65 116.976 277.337 117.13 284C117.237 288.665 117.786 293.193 117.936 297.83C118.063 301.759 116.847 304.381 119 308C120.91 306.02 122.4 304.916 125 304C125.822 301.286 128.083 299.748 129 297L133 297C134.382 294.58 135.363 293.939 138 293C138.822 290.286 141.083 288.748 142 286L146 286C149.402 277.461 159.862 274.848 163 266C161.203 266 161.479 266.014 160 267C157.391 262.48 150.397 259.453 146.005 256.722C138.654 252.152 132.203 247.13 125.435 241.861C121.09 238.479 118.452 234.912 113 233M213 246C209.954 252.815 201.623 256.096 201 264L207 266C206.349 260.476 210.307 254.903 214 251L215 246L213 246M179 280C177.296 285.607 169.342 291.368 164.99 295.232C154.765 304.312 144.641 313.48 134.17 322.326C129.452 326.311 124.875 331.936 119 334C120.268 338.439 122.106 343.354 122.278 348C122.413 351.655 121.434 354.258 122.361 358C123.22 361.469 123.187 365.187 127 366C127.45 362.537 130.923 362.415 134 361.639C141.846 359.659 149.958 356.845 158 356C160.604 348.616 163.154 340.549 169 335L168 333L171 332C172.088 325.593 177.559 319.748 181.003 314.334C185.593 307.118 188.744 297.939 195 292C194.908 289.204 195.491 286.75 196 284C191.297 284.554 187.375 282.17 184 279L179 280M227 303C223.926 309.167 220.03 316.246 215 321C213.974 329.028 205.884 337.021 202 344C206.872 344.495 211.117 342.604 215.91 342.133C218.315 341.896 220.638 342.646 223.039 342.422C232.682 341.525 242.545 337.757 252 335.652C259.076 334.076 265.816 335.024 273 333C271.125 328.055 266.244 325.979 261.961 323.254C252.366 317.149 239.863 312.32 232 304L227 303M91 359C89.9618 363.618 85.6695 365.93 82.3843 369.004C78.1369 372.978 75.351 377.23 70 380C69.6554 382.637 68.5858 382.661 66 383L64 389C73.3694 386.359 81.1485 381.327 91 380C93.387 376.095 97.6733 375.583 102 375C101.811 370.656 99.5796 365.772 102 362L100 354C96.7563 355.416 94.357 357.821 91 359M132 410C136.679 405.302 141.204 395.635 140 389C142.871 386.959 143.569 384.433 144 381C139.598 381.35 131.882 381.635 128.933 385.43C124.735 390.831 131.173 403.856 132 410z"/>
</svg>
